<svg xmlns="http://www.w3.org/2000/svg" version="1.1" xmlns:xlink="http://www.w3.org/1999/xlink" xmlns:svgjs="http://svgjs.dev/svgjs" width="1500" height="1500" viewBox="0 0 1500 1500"><rect width="1500" height="1500" fill="#ffffff"></rect><g transform="matrix(0.6666666666666666,0,0,0.6666666666666666,249.39393939393938,667.5734911216198)"><svg viewBox="0 0 396 65" data-background-color="#cd4b27" preserveAspectRatio="xMidYMid meet" height="246" width="1500" xmlns="http://www.w3.org/2000/svg" xmlns:xlink="http://www.w3.org/1999/xlink"><g id="tight-bounds" transform="matrix(1,0,0,1,0.2400000000000091,0.1690431530165597)"><svg viewBox="0 0 395.52 64.66191369396687" height="64.66191369396687" width="395.52"><g><svg viewBox="0 0 603.6986391367602 98.69617036060488" height="64.66191369396687" width="395.52"><g><rect width="6.440320186372764" height="71.77254067468009" x="170.00878337249856" y="13.461814842962397" fill="#000000" opacity="1" stroke-width="0" stroke="transparent" fill-opacity="1" class="rect-qz-0" data-fill-palette-color="primary" rx="1%" id="qz-0" data-palette-color="#f0d0a9"></rect></g><g><rect width="6.440320186372764" height="71.77254067468009" x="184.87884202271002" y="13.461814842962397" fill="#000000" opacity="1" stroke-width="0" stroke="transparent" fill-opacity="1" class="rect-qz-1" data-fill-palette-color="primary" rx="1%" id="qz-1" data-palette-color="#f0d0a9"></rect></g><g transform="matrix(1,0,0,1,208.17863913676018,13.640353501357119)"><svg viewBox="0 0 395.52 71.41546335789064" height="71.41546335789064" width="395.52"><g id="textblocktransform"><svg viewBox="0 0 395.52 71.41546335789064" height="71.41546335789064" width="395.52" id="textblock"><g><svg viewBox="0 0 395.52 71.41546335789064" height="71.41546335789064" width="395.52"><g transform="matrix(1,0,0,1,0,0)"><svg width="395.52" viewBox="1.55 -47 386.81 69.85" height="71.41546335789064" data-palette-color="#f0d0a9"><path d="M37.75-9.1Q38.5-9.4 39-9.4L39-9.4Q39.8-9.4 40.2-8.8 40.6-8.2 40.6-7.25L40.6-7.25Q40.6-5.75 39.88-4.7 39.15-3.65 37.4-2.8L37.4-2.8Q34.45-1.4 29.75-0.58 25.05 0.25 20.5 0.25L20.5 0.25Q14.2 0.25 9.95-1.18 5.7-2.6 3.63-5.1 1.55-7.6 1.55-10.75L1.55-10.75Q1.55-15.05 4.33-18.07 7.1-21.1 12.5-22.45L12.5-22.45Q9.55-23.3 7.98-25.45 6.4-27.6 6.4-30.25L6.4-30.25Q6.4-33.85 8.68-36.63 10.95-39.4 14.8-40.9 18.65-42.4 23.25-42.4L23.25-42.4Q29.45-42.4 32.55-39.73 35.65-37.05 35.65-32.8L35.65-32.8Q35.65-29.85 34.58-28.03 33.5-26.2 31.5-26.2L31.5-26.2Q30.1-26.2 29.3-26.83 28.5-27.45 28.5-28.7L28.5-28.7Q28.5-29.55 28.75-30.55L28.75-30.55Q29-32.2 29-32.8L29-32.8Q29-34.6 27.65-35.73 26.3-36.85 23.15-36.85L23.15-36.85Q18.9-36.85 16.35-35.05 13.8-33.25 13.8-30.2L13.8-30.2Q13.8-27.85 15.73-26.33 17.65-24.8 22-24.65L22-24.65Q23.1-24.6 23.55-24.15 24-23.7 24-22.65L24-22.65Q24-19.35 21-19.3L21-19.3Q16.85-19.2 14.13-18.15 11.4-17.1 10.18-15.48 8.95-13.85 8.95-12L8.95-12Q8.95-8.9 11.85-7.33 14.75-5.75 21.05-5.75L21.05-5.75Q25.2-5.75 29.83-6.73 34.45-7.7 37.75-9.1L37.75-9.1ZM55.65-11.15Q56.3-11.15 56.67-10.55 57.05-9.95 57.05-8.9L57.05-8.9Q57.05-6.9 56.1-5.8L56.1-5.8Q53.95-3.15 51.42-1.45 48.9 0.25 45.7 0.25L45.7 0.25Q41.3 0.25 39.17-3.75 37.05-7.75 37.05-14.1L37.05-14.1Q37.05-20.2 38.62-28 40.2-35.8 43.27-41.4 46.35-47 50.6-47L50.6-47Q53-47 54.37-44.78 55.75-42.55 55.75-38.4L55.75-38.4Q55.75-32.45 52.45-24.6 49.15-16.75 43.5-9.05L43.5-9.05Q43.85-7 44.65-6.13 45.45-5.25 46.75-5.25L46.75-5.25Q48.8-5.25 50.35-6.43 51.9-7.6 54.3-10.45L54.3-10.45Q54.9-11.15 55.65-11.15L55.65-11.15ZM49.5-42.05Q48.35-42.05 46.9-37.9 45.45-33.75 44.35-27.6 43.25-21.45 43.15-15.8L43.15-15.8Q46.7-21.65 48.8-27.53 50.9-33.4 50.9-38.25L50.9-38.25Q50.9-42.05 49.5-42.05L49.5-42.05ZM72.95-14Q74.35-14 74.35-11.9L74.35-11.9Q74.35-7.95 68.15-7.95L68.15-7.95Q66.95-7.95 64.7-8.4L64.7-8.4Q65.35-5.3 65.77-1.53 66.2 2.25 66.2 4.7L66.2 4.7Q66.2 10.1 64.45 12.95 62.7 15.8 59.85 15.8L59.85 15.8Q56.25 15.8 54.72 10.7 53.2 5.6 53.2-4.7L53.2-4.7Q53.2-14.3 55.27-24.18 57.35-34.05 60.97-40.53 64.6-47 68.95-47L68.95-47Q71.3-47 72.62-44.9 73.95-42.8 73.95-39.25L73.95-39.25Q73.95-27.5 59.9-13.65L59.9-13.65Q59.4-8.75 59.4-5.05L59.4-5.05Q59.4 0.1 59.75 5.53 60.1 10.95 60.9 10.95L60.9 10.95Q62.4 10.95 62.4 5.75L62.4 5.75Q62.4 1.85 61.87-1.8 61.35-5.45 60.45-9.5L60.45-9.5Q60.4-10.15 60.87-11.15 61.35-12.15 62.05-12.9 62.75-13.65 63.3-13.65L63.3-13.65Q64.3-13.65 65.7-13.55L65.7-13.55Q66.15-13.5 66.75-13.5L66.75-13.5Q68.75-13.5 71.2-13.85L71.2-13.85Q71.6-13.9 72.05-13.95 72.5-14 72.95-14L72.95-14ZM67.9-42.05Q67-42.05 65.67-39 64.35-35.95 63.05-30.93 61.75-25.9 60.8-20.3L60.8-20.3Q64.8-24.85 66.95-29.78 69.1-34.7 69.15-39L69.15-39Q69.15-42.05 67.9-42.05L67.9-42.05ZM85.49 0.4Q78.84 0.4 74.84-2.13 70.84-4.65 70.84-9.85L70.84-9.85Q70.84-12.6 71.79-14.05 72.74-15.5 74.59-15.5L74.59-15.5Q75.94-15.5 76.79-14.8 77.64-14.1 77.64-13L77.64-13Q77.64-12 77.49-11.25L77.49-11.25Q77.49-11.05 77.42-10.55 77.34-10.05 77.34-9.5L77.34-9.5Q77.34-7.25 79.62-6.15 81.89-5.05 85.99-5.05L85.99-5.05Q90.24-5.05 92.64-6.58 95.04-8.1 95.04-10.85L95.04-10.85Q95.04-12.55 93.94-13.78 92.84-15 91.19-15.83 89.54-16.65 86.54-17.85L86.54-17.85Q82.69-19.35 80.27-20.7 77.84-22.05 76.12-24.38 74.39-26.7 74.39-30.15L74.39-30.15Q74.39-33.75 76.32-36.55 78.24-39.35 81.87-40.9 85.49-42.45 90.39-42.45L90.39-42.45Q94.04-42.45 97.09-41.38 100.14-40.3 101.97-38.1 103.79-35.9 103.79-32.7L103.79-32.7Q103.79-29.55 102.84-27.95 101.89-26.35 100.04-26.35L100.04-26.35Q98.74-26.35 97.87-27.15 96.99-27.95 96.99-29.05L96.99-29.05Q96.99-30 97.14-30.8L97.14-30.8Q97.29-32.3 97.29-32.7L97.29-32.7Q97.29-34.8 95.24-35.9 93.19-37 90.14-37L90.14-37Q85.84-37 83.57-35.43 81.29-33.85 81.29-31L81.29-31Q81.29-29.1 82.47-27.75 83.64-26.4 85.39-25.5 87.14-24.6 90.29-23.35L90.29-23.35Q94.09-21.8 96.39-20.55 98.69-19.3 100.32-17.15 101.94-15 101.94-11.85L101.94-11.85Q101.94-5.95 97.47-2.78 92.99 0.4 85.49 0.4L85.49 0.4ZM115.74 0.25Q110.84 0.25 108.12-2.53 105.39-5.3 105.39-9.85L105.39-9.85Q105.39-13.9 106.99-16.95 108.59-20 111.14-21.65 113.69-23.3 116.49-23.3L116.49-23.3Q119.24-23.3 120.77-21.68 122.29-20.05 122.29-17.5L122.29-17.5Q122.29-15.4 121.37-13.95 120.44-12.5 118.94-12.5L118.94-12.5Q117.99-12.5 117.42-12.95 116.84-13.4 116.84-14.2L116.84-14.2Q116.84-14.55 116.94-15 117.04-15.45 117.09-15.65L117.09-15.65Q117.34-16.4 117.34-17.05L117.34-17.05Q117.34-17.7 117.02-18.05 116.69-18.4 116.09-18.4L116.09-18.4Q114.94-18.4 113.94-17.38 112.94-16.35 112.34-14.6 111.74-12.85 111.74-10.75L111.74-10.75Q111.74-4.95 116.79-4.95L116.79-4.95Q118.84-4.95 121.22-6.33 123.59-7.7 125.89-10.45L125.89-10.45Q126.49-11.15 127.24-11.15L127.24-11.15Q127.89-11.15 128.27-10.55 128.64-9.95 128.64-8.9L128.64-8.9Q128.64-7 127.69-5.8L127.69-5.8Q125.34-2.9 122.07-1.33 118.79 0.25 115.74 0.25L115.74 0.25ZM128.14 0.25Q126.24 0.25 125.46-1.75 124.69-3.75 124.69-8.15L124.69-8.15Q124.69-14.65 126.54-20.5L126.54-20.5Q126.99-21.95 128.01-22.63 129.04-23.3 130.89-23.3L130.89-23.3Q131.89-23.3 132.29-23.05 132.69-22.8 132.69-22.1L132.69-22.1Q132.69-21.3 131.94-18.5L131.94-18.5Q131.44-16.5 131.14-15 130.84-13.5 130.64-11.3L130.64-11.3Q132.29-15.6 134.34-18.3 136.39-21 138.36-22.15 140.34-23.3 141.99-23.3L141.99-23.3Q145.24-23.3 145.24-20.05L145.24-20.05Q145.24-19.4 144.79-16.9L144.79-16.9Q144.39-14.9 144.39-14.4L144.39-14.4Q144.39-12.65 145.64-12.65L145.64-12.65Q147.04-12.65 149.24-14.85L149.24-14.85Q149.89-15.5 150.59-15.5L150.59-15.5Q151.24-15.5 151.61-14.93 151.99-14.35 151.99-13.4L151.99-13.4Q151.99-11.55 150.99-10.5L150.99-10.5Q149.59-9.05 147.71-8.03 145.84-7 143.74-7L143.74-7Q141.09-7 139.71-8.35 138.34-9.7 138.34-12L138.34-12Q138.34-12.75 138.49-13.5L138.49-13.5Q138.59-14.5 138.59-14.85L138.59-14.85Q138.59-15.65 138.04-15.65L138.04-15.65Q137.29-15.65 136.06-13.98 134.84-12.3 133.64-9.55 132.44-6.8 131.69-3.75L131.69-3.75Q131.14-1.4 130.41-0.58 129.69 0.25 128.14 0.25L128.14 0.25ZM153.89-26.6Q151.79-26.6 150.74-27.58 149.69-28.55 149.69-30.3L149.69-30.3Q149.69-32.05 151.06-33.23 152.44-34.4 154.49-34.4L154.49-34.4Q156.34-34.4 157.49-33.5 158.64-32.6 158.64-30.95L158.64-30.95Q158.64-28.95 157.34-27.78 156.04-26.6 153.89-26.6L153.89-26.6ZM153.49 0.25Q150.24 0.25 148.76-2.05 147.29-4.35 147.29-8.15L147.29-8.15Q147.29-10.4 147.86-13.93 148.44-17.45 149.34-20.5L149.34-20.5Q149.79-22.1 150.54-22.7 151.29-23.3 152.94-23.3L152.94-23.3Q155.49-23.3 155.49-21.6L155.49-21.6Q155.49-20.35 154.54-15.8L154.54-15.8Q153.34-10.3 153.34-8.35L153.34-8.35Q153.34-6.85 153.74-6.05 154.14-5.25 155.09-5.25L155.09-5.25Q155.99-5.25 157.34-6.5 158.69-7.75 160.94-10.45L160.94-10.45Q161.54-11.15 162.29-11.15L162.29-11.15Q162.94-11.15 163.31-10.55 163.69-9.95 163.69-8.9L163.69-8.9Q163.69-6.9 162.74-5.8L162.74-5.8Q157.79 0.25 153.49 0.25L153.49 0.25ZM186.33-11.15Q186.98-11.15 187.36-10.55 187.73-9.95 187.73-8.9L187.73-8.9Q187.73-6.9 186.78-5.8L186.78-5.8Q184.63-3.15 182.16-1.45 179.68 0.25 176.53 0.25L176.53 0.25Q173.88 0.25 172.23-1.65L172.23-1.65Q169.38 0.2 166.28 0.25L166.28 0.25Q165.63 9.9 163.33 16.38 161.03 22.85 156.58 22.85L156.58 22.85Q153.88 22.85 152.58 20.9 151.28 18.95 151.28 15.5L151.28 15.5Q151.28 10.6 153.53 4.08 155.78-2.45 160.48-10.3L160.48-10.3Q160.48-17.6 160.38-20.45L160.38-20.45Q160.33-21.9 161.53-22.75 162.73-23.6 164.53-23.6L164.53-23.6Q165.58-23.6 166.06-23.18 166.53-22.75 166.58-21.5L166.58-21.5Q166.58-20.25 166.63-19.65L166.63-19.65Q168.23-21.65 169.78-22.53 171.33-23.4 173.08-23.4L173.08-23.4Q175.88-23.4 177.66-21.15 179.43-18.9 179.43-15.25L179.43-15.25Q179.43-12.6 178.58-10.1 177.73-7.6 176.23-5.55L176.23-5.55Q177.28-5.25 177.98-5.25L177.98-5.25Q179.63-5.25 181.13-6.45 182.63-7.65 184.98-10.45L184.98-10.45Q185.58-11.15 186.33-11.15L186.33-11.15ZM166.53-4.55Q168.33-4.95 169.86-6.53 171.38-8.1 172.28-10.43 173.18-12.75 173.18-15.3L173.18-15.3Q173.18-16.8 172.58-17.57 171.98-18.35 170.98-18.35L170.98-18.35Q169.18-18.35 166.63-14.55L166.63-14.55Q166.58-12.35 166.58-8.1L166.58-8.1Q166.58-5.8 166.53-4.55L166.53-4.55ZM156.98 17.95Q158.33 17.95 159.23 12.08 160.13 6.2 160.38-2.55L160.38-2.55Q158.23 2.45 156.98 7 155.73 11.55 155.73 14.65L155.73 14.65Q155.73 16.25 156.11 17.1 156.48 17.95 156.98 17.95L156.98 17.95ZM205.98-11.15Q206.63-11.15 207.01-10.55 207.38-9.95 207.38-8.9L207.38-8.9Q207.38-6.9 206.43-5.8L206.43-5.8Q204.28-3.15 201.73-1.45 199.18 0.25 195.88 0.25L195.88 0.25Q185.68 0.25 185.68-14.1L185.68-14.1Q185.68-16.3 185.83-18.55L185.83-18.55 183.88-18.55Q182.38-18.55 181.86-19.1 181.33-19.65 181.33-20.85L181.33-20.85Q181.33-23.65 183.58-23.65L183.58-23.65 186.43-23.65Q187.28-29.15 189.03-33.7 190.78-38.25 193.26-40.95 195.73-43.65 198.58-43.65L198.58-43.65Q200.68-43.65 201.88-41.8 203.08-39.95 203.08-37.15L203.08-37.15Q203.08-29.4 196.58-23.65L196.58-23.65 202.18-23.65Q202.98-23.65 203.33-23.3 203.68-22.95 203.68-22L203.68-22Q203.68-18.55 198.03-18.55L198.03-18.55 191.93-18.55Q191.83-16.05 191.83-14.65L191.83-14.65Q191.83-9.45 193.06-7.35 194.28-5.25 196.93-5.25L196.93-5.25Q199.08-5.25 200.73-6.55 202.38-7.85 204.63-10.45L204.63-10.45Q205.23-11.15 205.98-11.15L205.98-11.15ZM197.23-38.85Q196.48-38.85 195.56-36.98 194.63-35.1 193.81-31.78 192.98-28.45 192.43-24.4L192.43-24.4Q195.38-26.95 196.86-30.13 198.33-33.3 198.33-35.9L198.33-35.9Q198.33-38.85 197.23-38.85L197.23-38.85ZM257.58-32Q257.58-27.75 254.58-24.68 251.58-21.6 245.83-20.25L245.83-20.25Q248.93-19.4 250.53-17.48 252.13-15.55 252.13-13.05L252.13-13.05Q252.13-9.1 249.65-6.2 247.18-3.3 242.43-1.73 237.68-0.15 230.98-0.15L230.98-0.15Q228.48-0.15 226.98-0.3L226.98-0.3Q226.93 1.1 225.78 1.8 224.63 2.5 222.83 2.5L222.83 2.5Q221.03 2.5 220.35 1.7 219.68 0.9 219.78-0.65L219.78-0.65Q220.23-7.65 221.53-15.33 222.83-23 224.83-30.15L224.83-30.15Q225.18-31.4 226.23-31.9 227.28-32.4 228.98-32.4L228.98-32.4Q232.03-32.4 232.03-30.7L232.03-30.7Q232.03-30 231.73-29.1L231.73-29.1Q230.43-25.2 229.13-18.53 227.83-11.85 227.28-5.8L227.28-5.8Q229.68-5.6 231.18-5.6L231.18-5.6Q238.18-5.6 241.45-7.63 244.73-9.65 244.73-12.8L244.73-12.8Q244.73-15 242.85-16.5 240.98-18 236.58-18.15L236.58-18.15Q235.58-18.2 235.18-18.65 234.78-19.1 234.78-20.1L234.78-20.1Q234.78-21.55 235.38-22.45 235.98-23.35 237.58-23.4L237.58-23.4Q241.13-23.5 244-24.45 246.88-25.4 248.53-27.13 250.18-28.85 250.18-31.15L250.18-31.15Q250.18-34.05 247.33-35.73 244.48-37.4 238.58-37.4L238.58-37.4Q233.23-37.4 228.23-36.02 223.23-34.65 219.73-32.55L219.73-32.55Q218.13-31.6 217.03-31.6L217.03-31.6Q216.13-31.6 215.65-32.23 215.18-32.85 215.18-33.8L215.18-33.8Q215.18-35.05 215.7-35.95 216.23-36.85 218.23-38L218.23-38Q222.43-40.4 228.08-41.75 233.73-43.1 239.63-43.1L239.63-43.1Q248.68-43.1 253.13-40.05 257.58-37 257.58-32L257.58-32ZM260.47 0.25Q258.57 0.25 257.8-1.75 257.02-3.75 257.02-8.15L257.02-8.15Q257.02-14.65 258.87-20.5L258.87-20.5Q259.32-21.95 260.35-22.63 261.37-23.3 263.22-23.3L263.22-23.3Q264.22-23.3 264.62-23.05 265.02-22.8 265.02-22.1L265.02-22.1Q265.02-21.3 264.27-18.5L264.27-18.5Q263.77-16.5 263.47-15 263.17-13.5 262.97-11.3L262.97-11.3Q264.62-15.6 266.67-18.3 268.72-21 270.7-22.15 272.67-23.3 274.32-23.3L274.32-23.3Q277.57-23.3 277.57-20.05L277.57-20.05Q277.57-19.4 277.12-16.9L277.12-16.9Q276.72-14.9 276.72-14.4L276.72-14.4Q276.72-12.65 277.97-12.65L277.97-12.65Q279.37-12.65 281.57-14.85L281.57-14.85Q282.22-15.5 282.92-15.5L282.92-15.5Q283.57-15.5 283.95-14.93 284.32-14.35 284.32-13.4L284.32-13.4Q284.32-11.55 283.32-10.5L283.32-10.5Q281.92-9.05 280.05-8.03 278.17-7 276.07-7L276.07-7Q273.42-7 272.05-8.35 270.67-9.7 270.67-12L270.67-12Q270.67-12.75 270.82-13.5L270.82-13.5Q270.92-14.5 270.92-14.85L270.92-14.85Q270.92-15.65 270.37-15.65L270.37-15.65Q269.62-15.65 268.4-13.98 267.17-12.3 265.97-9.55 264.77-6.8 264.02-3.75L264.02-3.75Q263.47-1.4 262.75-0.58 262.02 0.25 260.47 0.25L260.47 0.25ZM286.22-26.6Q284.12-26.6 283.07-27.58 282.02-28.55 282.02-30.3L282.02-30.3Q282.02-32.05 283.4-33.23 284.77-34.4 286.82-34.4L286.82-34.4Q288.67-34.4 289.82-33.5 290.97-32.6 290.97-30.95L290.97-30.95Q290.97-28.95 289.67-27.78 288.37-26.6 286.22-26.6L286.22-26.6ZM285.82 0.25Q282.57 0.25 281.1-2.05 279.62-4.35 279.62-8.15L279.62-8.15Q279.62-10.4 280.2-13.93 280.77-17.45 281.67-20.5L281.67-20.5Q282.12-22.1 282.87-22.7 283.62-23.3 285.27-23.3L285.27-23.3Q287.82-23.3 287.82-21.6L287.82-21.6Q287.82-20.35 286.87-15.8L286.87-15.8Q285.67-10.3 285.67-8.35L285.67-8.35Q285.67-6.85 286.07-6.05 286.47-5.25 287.42-5.25L287.42-5.25Q288.32-5.25 289.67-6.5 291.02-7.75 293.27-10.45L293.27-10.45Q293.87-11.15 294.62-11.15L294.62-11.15Q295.27-11.15 295.65-10.55 296.02-9.95 296.02-8.9L296.02-8.9Q296.02-6.9 295.07-5.8L295.07-5.8Q290.12 0.25 285.82 0.25L285.82 0.25ZM317.57-11.05Q318.22-11.05 318.59-10.43 318.97-9.8 318.97-8.85L318.97-8.85Q318.97-7.7 318.62-7.05 318.27-6.4 317.52-5.9L317.52-5.9Q313.22-3 311.22-1.6L311.22-1.6 308.02 0.55Q306.12 10.9 303.04 16.82 299.97 22.75 295.22 22.75L295.22 22.75Q292.67 22.75 291.07 21.18 289.47 19.6 289.47 17.05L289.47 17.05Q289.47 13.5 292.27 9.43 295.07 5.35 302.77-0.6L302.77-0.6 303.07-2.55Q302.22-1.2 300.84-0.48 299.47 0.25 298.12 0.25L298.12 0.25Q295.02 0.25 293.17-2 291.32-4.25 291.32-7.9L291.32-7.9Q291.32-11.9 293.17-15.48 295.02-19.05 298.09-21.23 301.17-23.4 304.62-23.4L304.62-23.4Q305.72-23.4 306.09-22.98 306.47-22.55 306.72-21.45L306.72-21.45Q307.67-21.65 308.92-21.65L308.92-21.65Q310.17-21.65 310.69-21.28 311.22-20.9 311.22-19.8L311.22-19.8Q311.22-19.2 311.17-18.85L311.17-18.85Q310.97-17.3 309.92-11L309.92-11Q309.72-9.8 309.49-8.38 309.27-6.95 309.02-5.35L309.02-5.35Q312.87-8.35 316.42-10.65L316.42-10.65Q317.07-11.05 317.57-11.05L317.57-11.05ZM299.92-4.8Q301.07-4.8 302.12-6.2 303.17-7.6 303.62-10.2L303.62-10.2 305.22-18.75Q303.17-18.7 301.42-17.18 299.67-15.65 298.62-13.15 297.57-10.65 297.57-7.85L297.57-7.85Q297.57-6.3 298.19-5.55 298.82-4.8 299.92-4.8L299.92-4.8ZM295.77 17.9Q297.02 17.9 298.59 14.9 300.17 11.9 301.62 5.35L301.62 5.35Q297.77 8.65 296.07 11.3 294.37 13.95 294.37 15.95L294.37 15.95Q294.37 16.8 294.69 17.35 295.02 17.9 295.77 17.9L295.77 17.9ZM321.57 0.25Q318.47 0.25 316.62-2 314.77-4.25 314.77-7.9L314.77-7.9Q314.77-11.9 316.62-15.48 318.47-19.05 321.54-21.23 324.62-23.4 328.07-23.4L328.07-23.4Q329.17-23.4 329.54-22.98 329.92-22.55 330.17-21.45L330.17-21.45Q331.22-21.65 332.37-21.65L332.37-21.65Q334.82-21.65 334.82-19.9L334.82-19.9Q334.82-18.85 334.07-14.9L334.07-14.9Q332.92-9.15 332.92-6.9L332.92-6.9Q332.92-6.15 333.29-5.7 333.67-5.25 334.27-5.25L334.27-5.25Q335.22-5.25 336.57-6.48 337.92-7.7 340.22-10.45L340.22-10.45Q340.82-11.15 341.57-11.15L341.57-11.15Q342.22-11.15 342.59-10.55 342.97-9.95 342.97-8.9L342.97-8.9Q342.97-6.9 342.02-5.8L342.02-5.8Q339.97-3.25 337.67-1.5 335.37 0.25 333.22 0.25L333.22 0.25Q331.57 0.25 330.19-0.88 328.82-2 328.12-3.95L328.12-3.95Q325.52 0.25 321.57 0.25L321.57 0.25ZM323.37-4.8Q324.47-4.8 325.47-6.1 326.47-7.4 326.92-9.55L326.92-9.55 328.77-18.75Q326.67-18.7 324.89-17.18 323.12-15.65 322.07-13.15 321.02-10.65 321.02-7.85L321.02-7.85Q321.02-6.3 321.64-5.55 322.27-4.8 323.37-4.8L323.37-4.8ZM367.31-11.15Q367.96-11.15 368.34-10.55 368.71-9.95 368.71-8.9L368.71-8.9Q368.71-6.9 367.76-5.8L367.76-5.8Q365.71-3.3 363.26-1.53 360.81 0.25 358.41 0.25L358.41 0.25Q354.61 0.25 352.61-4.2L352.61-4.2Q350.51-1.55 348.94-0.65 347.36 0.25 345.26 0.25L345.26 0.25Q342.21 0.25 340.24-2.02 338.26-4.3 338.26-7.95L338.26-7.95Q338.26-11.95 339.96-15.38 341.66-18.8 344.64-20.98 347.61-23.15 351.31-23.55L351.31-23.55Q352.26-33.25 354.94-40.13 357.61-47 361.96-47L361.96-47Q364.11-47 365.54-45.05 366.96-43.1 366.96-39.15L366.96-39.15Q366.96-33.55 364.21-26.05 361.46-18.55 356.86-10.65L356.86-10.65Q357.06-7.75 357.74-6.5 358.41-5.25 359.46-5.25L359.46-5.25Q360.81-5.25 362.21-6.45 363.61-7.65 365.96-10.45L365.96-10.45Q366.56-11.15 367.31-11.15L367.31-11.15ZM361.41-42.1Q360.46-42.1 359.51-38.73 358.56-35.35 357.89-29.9 357.21-24.45 356.91-18.5L356.91-18.5Q362.51-30.7 362.51-38.1L362.51-38.1Q362.51-40 362.19-41.05 361.86-42.1 361.41-42.1L361.41-42.1ZM347.01-4.8Q347.96-4.8 348.91-5.58 349.86-6.35 351.31-8.45L351.31-8.45Q350.81-11.15 350.81-14.5L350.81-14.5Q350.81-15.7 350.91-18.4L350.91-18.4Q348.16-17.55 346.34-14.73 344.51-11.9 344.51-8.45L344.51-8.45Q344.51-4.8 347.01-4.8L347.01-4.8ZM386.96-11.15Q387.61-11.15 387.99-10.55 388.36-9.95 388.36-8.9L388.36-8.9Q388.36-6.9 387.41-5.8L387.41-5.8Q385.56-3.55 382.19-1.65 378.81 0.25 374.96 0.25L374.96 0.25Q369.71 0.25 366.81-2.6 363.91-5.45 363.91-10.4L363.91-10.4Q363.91-13.85 365.36-16.82 366.81-19.8 369.39-21.55 371.96-23.3 375.21-23.3L375.21-23.3Q378.11-23.3 379.86-21.58 381.61-19.85 381.61-16.9L381.61-16.9Q381.61-13.45 379.14-10.98 376.66-8.5 370.76-7.05L370.76-7.05Q372.01-4.75 375.51-4.75L375.51-4.75Q377.76-4.75 380.64-6.33 383.51-7.9 385.61-10.45L385.61-10.45Q386.21-11.15 386.96-11.15L386.96-11.15ZM374.36-18.4Q372.51-18.4 371.24-16.25 369.96-14.1 369.96-11.05L369.96-11.05 369.96-10.95Q372.91-11.65 374.61-13.05 376.31-14.45 376.31-16.3L376.31-16.3Q376.31-17.25 375.79-17.82 375.26-18.4 374.36-18.4L374.36-18.4Z" opacity="1" transform="matrix(1,0,0,1,0,0)" fill="#000000" class="wordmark-text-0" data-fill-palette-color="primary" id="text-0"></path></svg></g></svg></g></svg></g></svg></g><g><svg viewBox="0 0 153.14930644482118 98.69617036060488" height="98.69617036060488" width="153.14930644482118"><g><svg xmlns="http://www.w3.org/2000/svg" data-name="Layer 1" viewBox="10.242724862964932 24.36 79.55693633032935 51.269999999999996" x="0" y="0" height="98.69617036060488" width="153.14930644482118" class="icon-icon-0" data-fill-palette-color="accent" id="icon-0"><path d="M89.73 53.46l0-0.21a1.2 1.2 0 0 0 0-0.2 11.18 11.18 0 0 0-0.37-1.62H78.78A4.74 4.74 0 0 1 74 46.7V34.53A29.09 29.09 0 0 0 65.25 32l-0.2 0h-0.24a28.43 28.43 0 0 0-3.07-0.18H60.3a2.48 2.48 0 0 0 0-0.27V28.36H79.4a2 2 0 0 0 0-4H39.66a2 2 0 0 0 0 4H56.33v3.12a2.45 2.45 0 0 0 0 0.27H25.82a7.9 7.9 0 1 0-2 7.36l9.62 4.25a12.43 12.43 0 0 1 7.4 11.36A11.25 11.25 0 0 0 49.4 65.63v6H41.47a2 2 0 0 0 0 4H83.92a2 2 0 0 0 0-4h-9V66h3.58A11.26 11.26 0 0 0 89.73 53.49Zm-34.15-1H50.42V48H45.88V43h4.54V38.49h5.16V43h4.55V48H55.58ZM70.93 71.64H53.4V66H70.93Z" fill="#000000" data-fill-palette-color="accent"></path></svg></g></svg></g></svg></g><defs></defs></svg><rect width="395.52" height="64.66191369396687" fill="none" stroke="none" visibility="hidden"></rect></g></svg></g></svg>
